<?xml version="1.0" standalone="no"?>
<!DOCTYPE svg PUBLIC "-//W3C//DTD SVG 20010904//EN"
 "http://www.w3.org/TR/2001/REC-SVG-20010904/DTD/svg10.dtd">
<svg version="1.0" xmlns="http://www.w3.org/2000/svg"
 width="324.000000pt" height="517.000000pt" viewBox="0 0 324.000000 517.000000"
 preserveAspectRatio="xMidYMid meet">

<g transform="translate(0.000000,517.000000) scale(0.100000,-0.100000)"
fill="#000000" stroke="none">
<path d="M1777 3983 c-4 -3 -7 -21 -7 -39 0 -28 -4 -33 -27 -36 l-28 -3 -5
-1330 -5 -1330 -22 -55 c-26 -62 -63 -92 -138 -111 -66 -17 -191 -7 -241 19
-88 45 -156 155 -169 274 -3 29 -8 68 -11 85 l-5 33 -509 0 -510 0 0 -40 c0
-38 -2 -40 -30 -40 l-30 0 0 -99 c0 -251 80 -506 214 -680 133 -172 317 -299
536 -369 419 -134 913 -104 1270 75 204 103 336 215 479 408 98 133 149 228
189 355 59 188 57 130 57 1565 l0 1320 -501 3 c-275 1 -504 -1 -507 -5z m988
-1333 l0 -1315 -23 -102 c-21 -99 -70 -248 -78 -240 -2 2 3 23 11 46 8 23 23
82 32 129 17 81 18 184 18 1412 l0 1325 -467 3 -468 2 0 23 c0 13 3 27 7 30 3
4 223 6 487 5 l481 -3 0 -1315z m-57 0 c3 -1315 1 -1404 -44 -1570 -99 -371
-387 -662 -787 -795 -339 -112 -746 -114 -1080 -3 -453 150 -710 493 -734 981
l-6 127 494 -2 494 -3 7 -67 c17 -174 100 -298 224 -334 75 -22 201 -16 265
13 55 25 111 79 140 134 49 97 49 85 49 1460 0 707 3 1289 7 1292 3 4 223 6
487 5 l481 -3 3 -1235z m-1596 -1252 c16 -170 100 -297 219 -332 66 -20 171
-20 234 -1 27 8 51 12 53 10 8 -8 -93 -65 -133 -76 -61 -17 -192 -7 -241 19
-88 45 -156 155 -169 274 -3 29 -8 68 -11 86 l-5 32 -469 0 -470 0 0 30 0 30
493 -2 492 -3 7 -67z"/>
</g>
</svg>
